<svg
   xmlns:dc="http://purl.org/dc/elements/1.1/"
   xmlns:cc="http://creativecommons.org/ns#"
   xmlns:rdf="http://www.w3.org/1999/02/22-rdf-syntax-ns#"
   xmlns:svg="http://www.w3.org/2000/svg"
   xmlns="http://www.w3.org/2000/svg"
   id="svg32"
   version="1.1"
   viewBox="0 0  380 280">
  <metadata
     id="metadata38">
    <rdf:RDF>
      <cc:Work
         rdf:about="">
        <dc:format>image/svg+xml</dc:format>
        <dc:type
           rdf:resource="http://purl.org/dc/dcmitype/StillImage" />
      </cc:Work>
    </rdf:RDF>
  </metadata>
  <defs
     id="defs36" />
  <svg
     height="100%"
     width="100%"
     id="svg2"
     version="1.1"
     viewBox="0 0 380 280" />
  <g
     id="text4"
     style="font-size:35px;font-family:'Montserrat Semi Bold';fill:#0b6347;fill-opacity:1"
     aria-label="M">
    <path
       id="path40"
       style="font-size:35px;font-family:'Montserrat Semi Bold';fill:#0b6347;fill-opacity:1"
       d="m 143.56844,151.03125 h -4.97 v -16.52 l -6.51,14.035 h -3.605 l -6.51,-14.035 v 16.52 h -5.005 v -24.5 h 6.195 l 7.14,14.98 7.105,-14.98 h 6.16 z" />
  </g>
  <g
     id="text6"
     style="font-size:35px;font-family:'Montserrat Semi Bold';fill:#0b6347;fill-opacity:1"
     aria-label="a">
    <path
       id="path43"
       style="font-size:35px;font-family:'Montserrat Semi Bold';fill:#0b6347;fill-opacity:1"
       d="m 161.50219,151.03125 v -2.205 q -1.96,2.45 -5.915,2.45 -2.975,0 -4.725,-1.61 -1.75,-1.645 -1.75,-4.27 0,-2.66 1.855,-4.13 1.89,-1.505 5.32,-1.54 h 5.18 v -0.35 q 0,-1.505 -1.015,-2.31 -0.98,-0.84 -2.905,-0.84 -2.625,0 -5.6,1.645 l -1.68,-3.71 q 4.34,-2.17 8.505,-2.17 3.78,0 5.845,1.785 2.1,1.785 2.135,4.97 l 0.035,12.285 z m -4.41,-3.605 q 1.68,0 2.905,-0.805 1.225,-0.805 1.47,-2.03 v -1.68 h -4.235 q -3.08,0 -3.08,2.135 0,1.085 0.77,1.75 0.805,0.63 2.17,0.63 z" />
  </g>
  <g
     id="text8"
     style="font-size:35px;font-family:'Montserrat Semi Bold';fill:#0b6347;fill-opacity:1"
     aria-label="r">
    <path
       id="path46"
       style="font-size:35px;font-family:'Montserrat Semi Bold';fill:#0b6347;fill-opacity:1"
       d="m 178.20656,132.20125 v 3.395 q 1.995,-3.535 6.23,-3.605 v 5.075 q -2.835,-0.245 -4.55,1.12 -1.68,1.365 -1.68,3.78 v 9.065 h -5.39 v -18.83 z" />
  </g>
  <g
     id="text10"
     style="font-size:35px;font-family:'Montserrat Semi Bold';fill:#0b6347;fill-opacity:1"
     aria-label="s">
    <path
       id="path49"
       style="font-size:35px;font-family:'Montserrat Semi Bold';fill:#0b6347;fill-opacity:1"
       d="m 197.59281,131.95625 q 4.025,0 7.35,2.1 l -1.855,3.675 q -3.255,-1.82 -5.74,-1.82 -2.17,0 -2.17,1.4 0,0.77 1.015,1.26 1.015,0.49 2.485,0.91 1.47,0.385 2.905,0.98 1.47,0.56 2.485,1.82 1.015,1.225 1.015,3.08 0,2.8 -2.17,4.34 -2.17,1.54 -5.495,1.54 -4.9,0 -8.155,-2.625 l 1.75,-3.64 q 3.045,2.345 6.545,2.345 2.38,0 2.38,-1.47 0,-0.805 -1.015,-1.33 -0.98,-0.525 -2.415,-0.91 -1.435,-0.385 -2.905,-0.945 -1.435,-0.56 -2.45,-1.785 -0.98,-1.225 -0.98,-3.045 0,-2.8 2.1,-4.34 2.1,-1.54 5.32,-1.54 z" />
  </g>
  <g
     id="text12"
     style="font-size:35px;font-family:'Montserrat Semi Bold';fill:#0b6347;fill-opacity:1"
     aria-label="I">
    <path
       id="path52"
       style="font-size:35px;font-family:'Montserrat Semi Bold';fill:#0b6347;fill-opacity:1"
       d="m 216.35781,151.03125 h -5.53 v -24.5 h 5.53 z" />
  </g>
  <g
     id="text14"
     style="font-size:35px;font-family:'Montserrat Semi Bold';fill:#0b6347;fill-opacity:1"
     aria-label="o">
    <path
       id="path55"
       style="font-size:35px;font-family:'Montserrat Semi Bold';fill:#0b6347;fill-opacity:1"
       d="m 232.16531,132.02625 q 4.515,0 7.28,2.625 2.8,2.625 2.8,6.965 0,4.305 -2.8,6.965 -2.765,2.66 -7.28,2.66 -4.55,0 -7.35,-2.66 -2.765,-2.66 -2.765,-6.965 0,-4.34 2.765,-6.965 2.8,-2.625 7.35,-2.625 z m 0,4.48 q -2.1,0 -3.395,1.435 -1.295,1.435 -1.295,3.745 0,2.31 1.295,3.745 1.295,1.435 3.395,1.435 2.065,0 3.36,-1.435 1.33,-1.435 1.33,-3.745 0,-2.31 -1.33,-3.745 -1.295,-1.435 -3.36,-1.435 z" />
  </g>
  <g
     id="text16"
     style="font-size:35px;font-family:'Montserrat Semi Bold';fill:#0b6347;fill-opacity:1"
     aria-label="T">
    <path
       id="path58"
       style="font-size:35px;font-family:'Montserrat Semi Bold';fill:#0b6347;fill-opacity:1"
       d="m 265.70031,131.22125 h -7.49 v 19.81 h -5.53 v -19.81 h -7.455 v -4.69 h 20.475 z" />
  </g>
  <svg
     id="svg30"
     version="1.1"
     height="117.92674"
     width="144"
     y="81.036629"
     x="118">
    <svg
       height="100%"
       width="100%"
       id="svg28"
       version="1.1"
       viewBox="0 0 144.7 118.5"
       enable-background="new 0 0 144.7 118.5">
      <g
         style="clip-rule:evenodd;fill-rule:evenodd"
         id="g24">
        <path
           style="fill:#0b6347"
           id="path18"
           d="m 98.2,5 -2,11.1 -9.2,1.7 9.2,2 1.6,11.2 2,-11.1 9.2,-1.7 -9.2,-2 z" />
        <path
           style="fill:#0b6347"
           id="path20"
           d="m 107.8,23 c 30.6,23.1 44.5,56.1 31.1,77.3 -14.7,23.3 -56.6,23.6 -93.7,0.6 C 35.5,95 26.6,87.6 19,79 h 24.1 c 3.8,3.1 7.7,5.9 11.9,8.5 30.7,19 65.1,19.5 76.7,0.9 C 142.3,71.6 130.6,45 105.4,26 Z" />
        <path
           style="fill:#0b6347"
           id="path22"
           d="m 86,10.1 -2.7,3.4 C 56.9,2.1 30.7,4.2 20.8,19.9 17.8,24.7 16.5,30.4 17,36 H 0 C -0.1,29.5 1.7,23.1 5.1,17.6 18.1,-3 52.5,-5.6 86,10.1 Z" />
      </g>
      <path
         style="fill:#ffffff"
         id="path26"
         d="M 100.2,118.5 C 83.3,118.5 63.6,112.8 45.3,101.4 35.5,95.4 26.6,88 18.9,79.3 l -0.7,-0.8 h 25.4 l 0.1,0.1 c 3.7,3.1 7.7,5.9 11.8,8.5 30.5,18.8 64.6,19.3 76.1,1.1 10.2,-16.2 -1,-42.8 -26.2,-61.7 l -0.4,-0.3 3.1,-3.8 0.4,0.3 c 31.1,23.4 44.5,57 31.2,78 -7.6,11.8 -22.2,17.8 -39.5,17.8 z m -79.9,-39 c 7.4,8.2 16,15.3 25.4,21 36.8,22.8 78.5,22.6 93,-0.5 12.9,-20.5 -0.2,-53.3 -30.6,-76.4 l -1.8,2.3 c 25.7,19.6 36.6,45.9 26,62.8 -11.8,18.7 -46.5,18.3 -77.4,-0.8 -4.1,-2.5 -8,-5.4 -11.8,-8.4 z" />
    </svg>
  </svg>
</svg>
